<svg width="32" height="32" viewBox="0 0 32 32" fill="none" xmlns="http://www.w3.org/2000/svg">
  <path d="M13 7C13 5.34315 14.3431 4 16 4C17.6569 4 19 5.34315 19 7V15.2C21.3304 15.5909 23 17.5468 23 20C23 22.7614 20.7614 25 18 25H14C11.2386 25 9 22.7614 9 20C9 17.5468 10.6696 15.5909 13 15.2V7Z" stroke="#B45309" stroke-width="2" stroke-linecap="round" stroke-linejoin="round"/>
  <path d="M16 27V30" stroke="#B45309" stroke-width="2" stroke-linecap="round" stroke-linejoin="round"/>
  <path d="M20 30H12" stroke="#B45309" stroke-width="2" stroke-linecap="round" stroke-linejoin="round"/>
  <path d="M16 8C15.4477 8 15 7.55228 15 7C15 6.44772 15.4477 6 16 6" stroke="#B45309" stroke-width="2" stroke-linecap="round" stroke-linejoin="round"/>
</svg>